PathFileType	3	(X/Y/Z)	D:\minhoCalibration\240510\subject5_KPNP\preferred\preferred12.trc
DataRate	CameraRate	NumFrames	NumMarkers	Units	OrigDataRate	OrigDataStartFrame	OrigNumFrames
200.0	200.0	37	10	mm	200.0	187	141	
Frame#	Time	Left_Ankle_Outer1			Left_Ankle_Inner1			Left_Knee_Outer1			Left_Knee_Inner1			Left_Wrist1			Right_Wrist1			Right_Knee_Inner1			Right_Knee_Outer1			Right_Ankle_Inner1			Right_Ankle_Outer1			
		X1	Y1	Z1	X2	Y2	Z2	X3	Y3	Z3	X4	Y4	Z4	X5	Y5	Z5	X6	Y6	Z6	X7	Y7	Z7	X8	Y8	Z8	X9	Y9	Z9	X10	Y10	Z10	
187	0.925	-522.42676	95.418854	-574.67114	-554.18298	111.90651	-535.88782	-328.12515	531.26703	-546.3371	-370.3157	523.34204	-461.57043	-438.32022	968.37811	-751.38861	-528.21423	1181.8887	-506.05231	-388.52487	945.50494	-49.905659	-392.94839	1039.6796	-64.43383	-848.00983	868.59741	-31.122932	-845.7865	967.11328	-51.284103
188	0.93	-523.07648	94.396629	-574.8017	-555.34979	110.65636	-535.59631	-330.16275	530.71295	-546.22137	-371.82709	523.12286	-461.21869	-443.03271	966.78204	-749.84857	-526.16138	1182.8622	-505.15686	-380.52954	950.30853	-50.710426	-382.89197	1044.1626	-67.257111	-836.6792	887.59344	5.45084	-836.0116	984.02509	-18.16353
189	0.935	-523.73279	93.268417	-574.85529	-555.64722	109.80819	-535.21741	-332.11472	530.18054	-545.89996	-374.38748	522.13721	-461.26993	-448.06531	965.36267	-747.4942	-524.09857	1183.196	-505.28348	-373.48907	955.09827	-51.960018	-374.35309	1048.3898	-70.279526	-826.12683	902.37183	39.67997	-824.3847	1000.3113	15.72535
190	0.94	-524.36627	92.260742	-575.07062	-556.41656	108.41335	-535.60205	-334.11661	529.58099	-545.2536	-376.43552	521.59753	-460.92587	-450.60226	964.6886	-747.75159	-522.55377	1183.8914	-503.5715	-367.63123	959.74707	-53.443157	-367.45264	1052.2893	-73.332794	-810.82538	919.26917	80.53537	-810.89691	1016.0865	50.452351
191	0.945	-524.83557	91.248573	-575.18677	-557.01233	107.56456	-535.34662	-335.69122	529.11493	-544.85742	-378.04837	520.84955	-460.84454	-454.13089	963.13721	-747.14813	-521.13214	1184.2974	-503.0575	-363.17145	964.07477	-54.805878	-362.17215	1055.894	-76.444778	-794.95343	935.18243	120.14841	-795.16724	1030.9604	85.596642
192	0.95	-525.31531	90.415695	-575.2171	-557.22577	106.21719	-536.23969	-336.48718	528.92157	-545.08356	-379.74557	520.26508	-460.76239	-456.68872	961.94751	-747.09705	-519.90137	1184.6344	-502.66959	-360.17413	968.16321	-56.20018	-358.68076	1059.1541	-79.384834	-777.96185	952.08191	155.6097	-777.18677	1045.4185	121.22814
193	0.955	-525.84576	89.611847	-575.28009	-557.72632	105.27668	-536.23401	-338.29526	528.25818	-544.52698	-381.13232	519.67468	-460.8721	-460.00665	961.01843	-745.78406	-518.90021	1185.134	-502.45966	-358.82516	971.91705	-57.608105	-356.99887	1061.9912	-81.987968	-754.25513	966.46143	193.67877	-756.51105	1059.1155	156.93976
194	0.96	-526.40692	88.832565	-575.19257	-558.72498	104.44632	-535.56409	-339.16605	528.12335	-544.80444	-382.73325	519.21436	-460.88239	-462.32916	960.17963	-745.43115	-518.28711	1185.3914	-502.4584	-359.3295	975.28284	-59.187778	-357.06604	1064.371	-84.369286	-726.08344	980.88477	230.94466	-732.55511	1072.1174	192.29353
195	0.965	-526.93066	88.104332	-575.01752	-558.80103	104.18929	-534.95172	-340.40356	527.86926	-544.79675	-384.20703	518.83002	-460.9758	-464.24658	959.52698	-745.12573	-518.1474	1185.6626	-502.37488	-361.91635	978.09912	-60.871681	-358.84665	1066.37	-86.304634	-700.21259	993.46808	268.78986	-705.9259	1084.327	226.76776
196	0.97	-527.48621	87.43631	-574.88104	-559.90607	102.93876	-535.22174	-341.86163	527.57935	-544.73157	-385.92773	518.78412	-461.07324	-465.92084	959.13824	-744.67365	-518.17944	1185.9025	-502.56754	-366.44427	980.40338	-62.460495	-362.15735	1068.0824	-87.646851	-664.51831	1005.063	298.58084	-676.17773	1095.6163	260.14902
197	0.975	-528.06976	86.64109	-574.69006	-560.06378	102.01463	-535.58148	-343.20016	527.45691	-544.79333	-387.4776	518.45813	-461.33221	-467.70895	958.13879	-743.93304	-518.75415	1186.2205	-502.47275	-372.96893	982.49841	-63.219139	-367.05957	1069.733	-88.324547	-630.315	1015.3079	331.17477	-643.31866	1105.9905	290.9505
198	0.98	-528.71936	85.811234	-574.51849	-560.72083	101.39614	-535.08447	-344.97757	527.31982	-544.65125	-389.28369	518.36731	-461.4516	-468.9892	957.90515	-742.79547	-520.22186	1186.8514	-501.51395	-380.13049	984.61188	-63.150139	-373.13287	1071.493	-88.348419	-590.09741	1024.6583	355.60257	-607.69556	1114.6133	318.36758
199	0.985	-529.15509	85.147514	-574.57452	-561.35114	100.43538	-534.53717	-346.616	527.23199	-544.62653	-391.15649	518.20966	-461.54257	-469.49878	958.53503	-741.30157	-521.31567	1187.1625	-501.36423	-388.17694	987.1684	-62.076008	-379.98209	1073.5363	-88.065674	-548.65894	1030.3275	376.61218	-569.62964	1120.5348	341.54959
200	0.99	-529.94153	84.074936	-574.28302	-562.19128	99.446602	-534.27368	-349.0047	526.9892	-544.00507	-392.92242	517.96906	-461.53482	-469.52826	958.41235	-740.19421	-523.09979	1187.33	-500.58835	-396.48898	990.64801	-60.257851	-387.46246	1076.306	-87.848709	-503.08466	1033.0801	389.64401	-531.25146	1123.484	360.08109
201	0.995	-530.6441	83.048027	-574.25342	-562.8681	98.268944	-534.12549	-350.26675	527.03522	-544.18335	-394.88382	517.71338	-461.19302	-469.83023	958.68372	-737.83734	-525.16803	1187.6044	-499.48209	-404.55194	995.13678	-58.083988	-394.72516	1080.4528	-87.805275	-457.36438	1031.8243	396.60638	-491.82401	1121.7566	372.63187
202	1	-531.55054	81.910004	-574.09064	-563.84076	96.76001	-534.05035	-352.29025	526.81311	-543.66388	-396.68918	517.20117	-460.8251	-469.61188	958.93048	-735.47266	-526.9317	1187.6124	-498.75043	-411.06473	1000.9544	-56.20208	-400.97015	1086.5483	-87.094917	-425.22672	1029.552	397.54929	-461.85815	1116.4736	377.32288
203	1.005	-532.57043	80.549232	-573.88531	-564.81323	95.399574	-533.73523	-354.25482	526.43829	-543.12616	-398.37048	516.60071	-460.30618	-468.90964	959.42926	-732.46906	-529.03906	1187.8761	-496.96271	-413.36563	1007.5259	-54.708996	-405.54517	1093.724	-85.490807	-405.14182	1023.9804	392.73114	-448.45276	1112.2917	376.52557
204	1.01	-533.33746	79.492958	-573.82654	-565.31769	94.442085	-533.10999	-356.49478	525.93774	-542.24744	-400.11725	515.77808	-459.33139	-467.33313	959.89594	-729.67139	-531.68427	1188.2588	-493.90082	-410.90009	1014.7414	-54.294472	-407.01981	1101.3906	-84.283264	-396.95773	1017.9546	391.18411	-443.8562	1104.6154	377.80319
205	1.015	-534.22656	78.274986	-573.63245	-566.29791	92.897827	-533.48224	-358.77789	525.46301	-541.17932	-402.03427	514.87396	-457.95242	-465.96722	959.78235	-726.55225	-533.73608	1187.9717	-491.72916	-406.41592	1020.8783	-53.893433	-408.44928	1107.2749	-81.96283	-395.34695	1011.5995	389.99451	-446.95898	1096.9457	379.03149
206	1.02	-534.84125	77.43399	-573.4801	-567.14124	91.383781	-533.72571	-361.00446	524.75659	-539.5481	-404.20142	513.93652	-456.06473	-464.07401	959.74438	-724.11963	-536.01105	1187.6813	-489.57031	-402.7038	1025.5388	-54.364021	-410.21628	1111.7317	-80.118401	-394.06055	1009.3137	390.25058	-453.1217	1089.7532	380.68903
207	1.025	-535.30267	76.716942	-573.28418	-567.93433	90.445671	-532.79126	-363.00833	524.16003	-537.51941	-406.32907	512.96973	-454.02301	-462.60458	959.85162	-721.31158	-538.67334	1187.3464	-487.66907	-400.02151	1028.9369	-54.958115	-413.22522	1114.6434	-78.20385	-394.02289	1006.2966	390.80322	-459.71823	1082.6703	382.1532
208	1.03	-535.54376	76.218719	-573.16632	-567.83453	90.337486	-531.86993	-364.72009	523.71149	-535.00073	-408.65042	512.08441	-451.67191	-462.15109	959.71582	-717.78241	-541.32904	1186.5138	-485.95438	-398.71002	1031.7715	-55.083992	-415.99609	1116.3824	-76.637077	-397.63336	1001.954	393.53995	-464.42499	1076.9845	383.74713
209	1.035	-535.79327	75.931465	-572.92279	-568.203	90.143105	-531.27448	-366.44681	523.34607	-532.12262	-410.90158	511.43326	-449.41714	-460.15891	960.22522	-715.85925	-544.20068	1185.8832	-484.61212	-398.68051	1034.4073	-54.92482	-418.31027	1117.9619	-75.126045	-403.84628	995.5014	391.55243	-467.1084	1073.2417	385.49939
210	1.04	-535.83392	75.839088	-572.69635	-568.68365	89.08255	-531.98456	-368.44113	523.10797	-528.599	-413.97955	511.25925	-446.46707	-458.66602	960.29694	-713.72235	-547.31799	1185.7506	-483.85675	-399.8295	1036.4276	-54.223244	-420.95477	1118.7524	-73.984116	-407.75211	990.39514	390.83011	-470.74457	1067.7944	385.57047
211	1.045	-535.63538	76.044495	-572.56464	-568.6839	89.28968	-531.67072	-369.84088	523.54779	-525.71307	-416.67261	511.12778	-444.13556	-458.00137	960.21637	-710.64148	-550.46075	1186.0475	-483.47159	-402.23672	1037.2538	-52.864044	-424.33252	1118.4216	-73.066528	-409.63358	986.54578	390.99939	-475.71341	1061.0969	386.0098
212	1.05	-535.50226	76.28331	-572.38232	-568.46198	89.303902	-531.6272	-371.21564	524.18378	-523.0603	-419.47531	511.30051	-441.88492	-457.17218	959.83411	-707.74988	-553.36792	1186.6615	-483.42261	-406.11456	1036.8855	-51.698368	-429.53763	1117.5344	-71.386879	-411.37119	982.6355	391.44016	-480.08191	1055.2917	387.10767
213	1.055	-535.47333	76.334679	-572.11768	-568.71106	89.416916	-531.30231	-372.85196	525.13312	-520.35852	-422.3927	511.7702	-439.91605	-456.32562	959.2724	-704.98639	-556.07892	1187.5125	-483.77414	-410.97354	1035.5613	-51.068226	-435.6123	1116.5641	-69.956963	-413.40146	979.01031	392.08633	-483.6723	1049.7954	388.05365
214	1.06	-535.55408	76.435684	-571.69946	-569.1192	88.772202	-532.0899	-375.05103	526.00549	-517.72748	-425.32379	512.40491	-438.24338	-455.06195	958.91223	-702.58203	-558.50299	1188.4731	-484.08713	-415.42679	1033.9608	-51.068546	-442.54291	1115.0721	-68.611343	-415.5809	974.8927	392.40976	-486.85794	1044.4302	388.9548
215	1.065	-535.82892	76.528145	-571.26312	-569.77484	88.596512	-531.54541	-376.90939	527.14081	-515.62762	-428.42166	513.10352	-436.901	-454.38416	958.11597	-699.79065	-560.68988	1189.2238	-484.37515	-419.12738	1032.3759	-50.982697	-450.02005	1112.9441	-67.152161	-417.71802	970.59601	392.8096	-490.36923	1039.0507	390.21622
216	1.07	-536.40173	76.576225	-570.81348	-570.65314	88.335335	-530.78748	-379.19241	527.68964	-513.59735	-431.45935	513.823	-435.82266	-453.47247	957.44611	-697.216	-562.30396	1190.0176	-485.04419	-425.90063	1029.0044	-47.754925	-458.01205	1110.2598	-65.246635	-419.80447	966.25885	393.24332	-493.5209	1033.293	391.13071
217	1.075	-537.12823	76.63266	-570.14874	-571.6701	87.797974	-530.33148	-380.95889	528.62433	-512.27332	-434.45969	514.49323	-435.10251	-452.66174	956.8822	-694.77148	-564.42474	1190.3042	-484.83926	-429.4819	1027.0891	-46.827442	-465.65311	1107.0226	-63.295887	-421.90961	961.34955	393.54871	-496.56525	1027.2102	392.15442
218	1.08	-537.90155	76.443977	-569.40686	-571.85327	87.534355	-530.58057	-383.0968	528.97107	-511.16245	-437.39893	514.97101	-434.72464	-451.84845	956.51788	-692.513	-565.85114	1190.5823	-485.7052	-432.88919	1025.2699	-45.956577	-472.51538	1103.3812	-61.528015	-423.74469	956.02185	393.49362	-499.23999	1020.3178	392.89096
219	1.085	-538.90833	76.280487	-568.71735	-573.32147	86.932098	-529.51459	-384.99197	529.19037	-510.41757	-440.08725	515.2132	-434.72763	-450.75101	956.48871	-690.70325	-567.41034	1191.062	-485.36127	-434.54187	1023.6083	-46.23148	-478.76822	1099.7838	-60.051922	-425.76971	950.29401	393.14139	-502.5614	1013.5261	394.19604
220	1.09	-539.58899	76.149094	-568.08331	-574.68793	85.822914	-528.42798	-386.9603	529.18176	-509.86899	-442.69455	515.36938	-434.71381	-449.99957	956.34772	-689.0069	-568.96472	1191.1982	-485.2099	-438.43109	1021.0179	-45.356731	-485.08057	1095.9291	-58.416126	-427.95502	944.11957	392.37094	-505.21844	1005.64	394.78409
221	1.095	-540.19025	75.966354	-567.74854	-574.88647	85.644226	-527.89008	-388.40601	529.19904	-509.93347	-444.87042	515.29803	-435.0441	-449.23062	956.54004	-687.55127	-570.55518	1191.051	-484.64966	-442.89957	1017.5549	-44.188641	-490.03448	1092.1061	-57.171432	-430.3978	937.26459	391.54657	-508.33719	997.55371	395.37305
222	1.1	-540.59399	75.705963	-567.51514	-575.05438	85.57708	-527.24609	-389.6084	529.02277	-510.1745	-446.61816	515.09241	-435.49863	-448.41	957.01746	-686.3548	-571.56964	1190.7583	-484.84015	-447.84839	1013.4046	-42.906845	-494.98047	1088.0244	-55.543026	-432.91565	929.93219	390.89566	-511.53552	988.96179	395.55576
223	1.105	-540.83508	75.530464	-567.52551	-575.10913	84.998131	-528.32672	-390.45004	528.83289	-510.62692	-447.90271	514.88275	-436.12891	-447.37424	958.01746	-685.45099	-573.69836	1190.0729	-483.09555	-452.94458	1008.8197	-41.728649	-499.25516	1083.8276	-54.118732	-435.85107	922.09369	390.22284	-515.13635	979.93597	395.64426
